<svg width="22019" height="20027" viewBox="0 0 22019 20027" fill="none" xmlns="http://www.w3.org/2000/svg">
<path d="M14570 3473.5C12975.2 -874.5 9190.17 -236.833 7497 625.5L6453 1574.5C5409 2523.5 5954.5 3473.5 4625.5 4185.5C3296.5 4897.5 2181 4351.5 1421.5 5585.5C813.9 6572.7 1389.67 7041.17 1753.5 7152C3668 8330.83 7046.1 10849.9 5242.5 11495.5C2988 12302.5 -287.5 11281.5 21.0005 13536.5C329.5 15791.5 5669.5 13180.5 5954.5 14153.5C6239.5 15126.5 -3919 23528.5 12149 18354.5C25003.4 14215.3 22599.7 12531.8 19791 12207.5C15985.8 11906.8 8797.9 10864 10487.5 9098C12599.5 6890.5 16563.5 8908.5 14570 3473.5Z" fill="#E5E7F6" stroke="#D93D3D"/>
</svg>
